HIERARCHY
ROOT Hips
{
	OFFSET 0.000000 0.000000 0.000000
	CHANNELS 6 Xposition Yposition Zposition Xrotation Yrotation Zrotation
	JOINT LeftUpLeg_virtual
	{
		OFFSET 0.000000 0.000000 0.000000
		CHANNELS 3 Xrotation Yrotation Zrotation
		JOINT LeftUpLeg
		{
			OFFSET 13.026900 -6.336304 -1.092800
			CHANNELS 3 Xrotation Yrotation Zrotation
			JOINT LeftLeg
			{
				OFFSET 0.524474 -46.096886 9.782700
				CHANNELS 3 Xrotation Yrotation Zrotation
				JOINT LeftFoot
				{
					OFFSET -0.524474 -53.427422 -12.948200
					CHANNELS 3 Xrotation Yrotation Zrotation
					JOINT LeftToeBase
					{
						OFFSET 0.192200 -14.009700 16.364100
						CHANNELS 3 Xrotation Yrotation Zrotation
						JOINT LeftToe_End
						{
							OFFSET -1.784700 -0.561700 9.474800
							CHANNELS 3 Xrotation Yrotation Zrotation
							End Site
							{
								OFFSET 0 0 0
							}
						}
					}
				}
			}
		}
	}
	JOINT RightUpLeg_virtual
	{
		OFFSET 0.000000 0.000000 0.000000
		CHANNELS 3 Xrotation Yrotation Zrotation
		JOINT RightUpLeg
		{
			OFFSET -12.883000 -6.336304 -1.092800
			CHANNELS 3 Xrotation Yrotation Zrotation
			JOINT RightLeg
			{
				OFFSET -0.524587 -46.096825 9.782800
				CHANNELS 3 Xrotation Yrotation Zrotation
				JOINT RightFoot
				{
					OFFSET 0.524587 -53.427383 -12.948300
					CHANNELS 3 Xrotation Yrotation Zrotation
					JOINT RightToeBase
					{
						OFFSET -0.192200 -14.009700 16.364100
						CHANNELS 3 Xrotation Yrotation Zrotation
						JOINT RightToe_End
						{
							OFFSET 1.784700 -0.561700 9.474800
							CHANNELS 3 Xrotation Yrotation Zrotation
							End Site
							{
								OFFSET 0 0 0
							}
						}
					}
				}
			}
		}
	}
	JOINT Spine_virtual
	{
		OFFSET 0.000000 0.000000 0.000000
		CHANNELS 3 Xrotation Yrotation Zrotation
		JOINT Spine
		{
			OFFSET 0.072000 7.257294 -0.789700
			CHANNELS 3 Xrotation Yrotation Zrotation
			JOINT Spine1
			{
				OFFSET 0.000000 12.508769 -0.658067
				CHANNELS 3 Xrotation Yrotation Zrotation
				JOINT Spine1_split
				{
					OFFSET 0.000000 12.508769 -0.658067
					CHANNELS 3 Xrotation Yrotation Zrotation
					JOINT Spine2
					{
						OFFSET 0.000000 12.508769 -0.658067
						CHANNELS 3 Xrotation Yrotation Zrotation
						JOINT Neck_virtual
						{
							OFFSET 0.000000 0.000000 0.000000
							CHANNELS 3 Xrotation Yrotation Zrotation
							JOINT Neck
							{
								OFFSET 0.000000 14.033295 7.520400
								CHANNELS 3 Xrotation Yrotation Zrotation
								JOINT Head
								{
									OFFSET 0.000000 8.198502 5.703100
									CHANNELS 3 Xrotation Yrotation Zrotation
									JOINT HeadTop_End
									{
										OFFSET 0.000000 17.760803 13.332701
										CHANNELS 3 Xrotation Yrotation Zrotation
										End Site
										{
											OFFSET 0 0 0
										}
									}
								}
							}
						}
						JOINT LeftShoulder_virtual
						{
							OFFSET 0.000000 0.000000 0.000000
							CHANNELS 3 Xrotation Yrotation Zrotation
							JOINT LeftShoulder
							{
								OFFSET 6.292450 5.785301 -0.669000
								CHANNELS 3 Xrotation Yrotation Zrotation
								JOINT LeftShoulder_split
								{
									OFFSET 6.292450 5.785301 -0.669000
									CHANNELS 3 Xrotation Yrotation Zrotation
									JOINT LeftArm
									{
										OFFSET 13.907140 -6.093903 1.965100
										CHANNELS 3 Xrotation Yrotation Zrotation
										JOINT LeftForeArm
										{
											OFFSET 34.140198 0.000000 0.000000
											CHANNELS 3 Xrotation Yrotation Zrotation
											JOINT LeftHand
											{
												OFFSET 40.960209 0.000000 0.000000
												CHANNELS 3 Xrotation Yrotation Zrotation
												End Site
												{
													OFFSET 0 0 0
												}
											}
										}
									}
								}
							}
						}
						JOINT RightShoulder_virtual
						{
							OFFSET 0.000000 0.000000 0.000000
							CHANNELS 3 Xrotation Yrotation Zrotation
							JOINT RightShoulder
							{
								OFFSET -6.292450 5.785301 -0.669000
								CHANNELS 3 Xrotation Yrotation Zrotation
								JOINT RightShoulder_split
								{
									OFFSET -6.292450 5.785301 -0.669000
									CHANNELS 3 Xrotation Yrotation Zrotation
									JOINT RightArm
									{
										OFFSET -13.907140 -6.093903 1.965100
										CHANNELS 3 Xrotation Yrotation Zrotation
										JOINT RightForeArm
										{
											OFFSET -34.140198 0.000000 0.000000
											CHANNELS 3 Xrotation Yrotation Zrotation
											JOINT RightHand
											{
												OFFSET -40.960209 0.000000 0.000000
												CHANNELS 3 Xrotation Yrotation Zrotation
												End Site
												{
													OFFSET 0 0 0
												}
											}
										}
									}
								}
							}
						}
					}
				}
			}
		}
	}
}
MOTION
Frames: 4
Frame Time: 0.03333333
0.156041 110.150169 1.169628 0.000000 0.000000 0.000000 -2.164608 -25.075866 0.174424 -25.962772 24.032565 11.800654 23.290631 8.171809 11.169797 -0.804158 0.345925 -13.255206 0.743467 -0.009272 -1.442031 0.000000 0.000000 0.000000 -2.697360 -23.721740 0.352335 -16.764312 -18.476124 -7.658449 25.080328 -1.602084 -9.739721 -10.232216 -0.877484 10.697555 -2.084090 0.124606 -0.067764 0.000000 0.000000 0.000000 -1.224747 -26.112853 0.017072 4.522745 -1.713246 0.854539 0.657487 -0.605297 0.110843 1.040711 -0.598205 0.368229 0.000000 0.000000 0.000000 0.723212 -0.764624 0.229179 -2.543616 1.509563 3.291755 17.637109 23.796201 -12.686494 0.000000 0.000000 0.000000 1.396385 -0.704319 0.205507 -0.668411 2.457118 4.307862 -1.661648 -0.095963 -0.346548 -53.359927 -2.330087 -49.519780 -13.723753 -87.567875 -13.275570 0.000000 0.000000 0.000000 2.223473 -0.358496 0.063589 -1.103566 -10.958293 11.052324 0.963878 1.892110 0.410784 -64.106714 64.604574 79.531556 -20.736178 87.458701 20.756998 0.000000 0.000000 0.000000 
0.152764 110.114029 1.145962 0.000000 0.000000 0.000000 -2.122613 -25.144184 0.223668 -25.980486 24.092604 11.810864 23.318051 8.154852 11.149630 -0.827643 0.294264 -13.262919 0.738695 -0.006946 -1.438143 0.000000 0.000000 0.000000 -2.662202 -23.756909 0.402116 -16.895544 -18.665688 -7.693412 25.159758 -1.438681 -9.840017 -10.215453 -0.851959 10.738420 -2.118001 0.119410 -0.076850 0.000000 0.000000 0.000000 -1.194426 -26.208078 0.059071 4.514193 -1.738020 0.862120 0.642278 -0.614701 0.106664 1.041667 -0.591866 0.356327 0.000000 0.000000 0.000000 0.706029 -0.775687 0.228687 -2.517450 1.534862 3.292785 17.654608 23.863008 -12.688651 0.000000 0.000000 0.000000 1.383778 -0.713887 0.204968 -0.663355 2.491126 4.233070 -1.687395 -0.136288 -0.353228 -53.323318 -2.396186 -49.448749 -13.160139 -87.464097 -12.710947 0.000000 0.000000 0.000000 2.207193 -0.371913 0.058929 -1.110511 -10.957803 11.017253 1.031007 1.897628 0.419897 -64.170488 64.631471 79.510328 -20.702879 87.472757 20.727908 0.000000 0.000000 0.000000 
0.158782 110.077179 1.129871 0.000000 0.000000 0.000000 -2.078889 -25.222895 0.274953 -26.010014 24.180232 11.841007 23.343485 8.119570 11.128404 -0.856141 0.227542 -13.266510 0.729451 -0.006798 -1.435824 0.000000 0.000000 0.000000 -2.625245 -23.802941 0.455407 -17.043641 -18.869333 -7.737940 25.242229 -1.261498 -9.945077 -10.198090 -0.826223 10.779838 -2.132709 0.115250 -0.086868 0.000000 0.000000 0.000000 -1.156135 -26.322787 0.108664 4.510410 -1.766642 0.866058 0.622162 -0.626144 0.104991 1.042687 -0.583800 0.343155 0.000000 0.000000 0.000000 0.692254 -0.789518 0.228413 -2.489102 1.558682 3.299332 17.664865 23.923733 -12.683361 0.000000 0.000000 0.000000 1.367728 -0.727292 0.202944 -0.654767 2.512029 4.152616 -1.716437 -0.159194 -0.347079 -53.312341 -2.450801 -49.363034 -12.572870 -87.368495 -12.126389 0.000000 0.000000 0.000000 2.189983 -0.386353 0.057555 -1.115319 -10.936912 10.972604 1.079227 1.910649 0.416158 -64.204058 64.634360 79.473711 -20.654784 87.482388 20.686401 0.000000 0.000000 0.000000 
0.172462 110.044571 1.125366 0.000000 0.000000 0.000000 -2.037385 -25.304007 0.326636 -26.037829 24.284611 11.881339 23.358897 8.078574 11.108011 -0.889210 0.162637 -13.264315 0.725685 -0.008444 -1.436462 0.000000 0.000000 0.000000 -2.590100 -23.859968 0.509743 -17.191531 -19.060353 -7.789112 25.327038 -1.084177 -10.046996 -10.173593 -0.805659 10.827119 -2.151368 0.112217 -0.099630 0.000000 0.000000 0.000000 -1.118099 -26.445502 0.163642 4.506509 -1.799260 0.869245 0.598525 -0.639413 0.106874 1.038695 -0.572508 0.328953 0.000000 0.000000 0.000000 0.682536 -0.805721 0.230009 -2.456383 1.579356 3.303900 17.674252 23.974664 -12.678660 0.000000 0.000000 0.000000 1.350684 -0.744071 0.201743 -0.643825 2.521010 4.068406 -1.744278 -0.168776 -0.327410 -53.342958 -2.492229 -49.266585 -11.910232 -87.271280 -11.469307 0.000000 0.000000 0.000000 2.174161 -0.401005 0.060592 -1.117645 -10.892679 10.907110 1.112083 1.927351 0.398216 -64.235573 64.620188 79.451561 -20.488571 87.471132 20.525664 0.000000 0.000000 0.000000 
